<svg width="17" height="30" viewBox="0 0 17 30" fill="none" xmlns="http://www.w3.org/2000/svg">
<path d="M2.6799 30C2.1199 30 1.5999 29.8667 1.1199 29.6C0.639902 29.3067 0.399902 28.8933 0.399902 28.36V2.36001C0.399902 1.80001 0.666569 1.40001 1.1999 1.16001C1.7599 0.893343 2.3599 0.76001 2.9999 0.76001C3.66657 0.76001 4.26657 0.893343 4.7999 1.16001C5.33324 1.40001 5.5999 1.80001 5.5999 2.36001V25.44H15.3999C15.9066 25.44 16.2799 25.68 16.5199 26.16C16.7866 26.6133 16.9199 27.1333 16.9199 27.72C16.9199 28.28 16.7866 28.8 16.5199 29.28C16.2799 29.76 15.9066 30 15.3999 30H2.6799Z" fill="#141414"/>
</svg>
