<svg width="24" height="26" viewBox="0 0 24 26" fill="none" xmlns="http://www.w3.org/2000/svg">
<path d="M2.25 25.2943C1.65 25.2943 1.125 25.1046 0.675 24.7252C0.225 24.3457 0 23.9031 0 23.3972V1.89707C0 1.39119 0.225 0.948536 0.675 0.569121C1.125 0.189707 1.65 0 2.25 0H21.75C22.35 0 22.875 0.189707 23.325 0.569121C23.775 0.948536 24 1.39119 24 1.89707V23.3972C24 23.9031 23.775 24.3457 23.325 24.7252C22.875 25.1046 22.35 25.2943 21.75 25.2943H2.25ZM2.25 23.3972H21.75V1.89707H19.5V9.48536C19.5 9.67506 19.4125 9.81734 19.2375 9.9122C19.0625 10.007 18.875 10.0018 18.675 9.89639L15.8625 8.53682L13.05 9.89639C12.85 10.0018 12.6625 10.007 12.4875 9.9122C12.3125 9.81734 12.225 9.67506 12.225 9.48536V1.89707H2.25V23.3972Z" fill="url(#paint0_linear_15_367)"/>
<defs>
<linearGradient id="paint0_linear_15_367" x1="12" y1="0" x2="12" y2="25.2943" gradientUnits="userSpaceOnUse">
<stop stop-color="#118FCA"/>
<stop offset="1" stop-color="#97D1EC"/>
</linearGradient>
</defs>
</svg>
