<svg width="246" height="31" viewBox="0 0 246 31" fill="none" xmlns="http://www.w3.org/2000/svg">
<path d="M2.68002 30C2.12002 30 1.60002 29.8667 1.12002 29.6C0.640024 29.3067 0.400024 28.88 0.400024 28.32V2.40002C0.400024 1.81335 0.666691 1.40002 1.20002 1.16002C1.76002 0.893354 2.36002 0.760021 3.00002 0.760021C3.66669 0.760021 4.26669 0.893354 4.80002 1.16002C5.33336 1.40002 5.60002 1.81335 5.60002 2.40002V25.44H15.4C15.9334 25.44 16.32 25.68 16.56 26.16C16.8 26.6134 16.92 27.1334 16.92 27.72C16.92 28.28 16.8 28.8 16.56 29.28C16.32 29.76 15.9334 30 15.4 30H2.68002Z" fill="#141414"/>
<path d="M28.5519 30.24C26.7386 30.24 25.1119 29.9467 23.6719 29.36C22.2319 28.7467 21.0852 27.7734 20.2319 26.44C19.3786 25.08 18.9519 23.28 18.9519 21.04V2.40002C18.9519 1.81335 19.2186 1.40002 19.7519 1.16002C20.2852 0.893354 20.8852 0.760021 21.5519 0.760021C22.1919 0.760021 22.7786 0.893354 23.3119 1.16002C23.8719 1.40002 24.1519 1.81335 24.1519 2.40002V21.04C24.1519 22.6134 24.5386 23.7867 25.3119 24.56C26.0852 25.3067 27.1652 25.68 28.5519 25.68C29.9119 25.68 30.9786 25.3067 31.7519 24.56C32.5519 23.7867 32.9519 22.6134 32.9519 21.04V2.40002C32.9519 1.81335 33.2052 1.40002 33.7119 1.16002C34.2452 0.893354 34.8586 0.760021 35.5519 0.760021C36.1919 0.760021 36.7786 0.893354 37.3119 1.16002C37.8719 1.40002 38.1519 1.81335 38.1519 2.40002V21.04C38.1519 23.28 37.7252 25.08 36.8719 26.44C36.0186 27.7734 34.8586 28.7467 33.3919 29.36C31.9519 29.9467 30.3386 30.24 28.5519 30.24Z" fill="#141414"/>
<path d="M51.7419 30.24C50.0886 30.24 48.5552 29.9467 47.1419 29.36C45.7286 28.7467 44.5952 27.7734 43.7419 26.44C42.9152 25.08 42.5019 23.28 42.5019 21.04V9.96002C42.5019 7.72002 42.9152 5.93335 43.7419 4.60002C44.5952 3.24002 45.7286 2.26669 47.1419 1.68002C48.5552 1.06669 50.1019 0.760021 51.7819 0.760021C53.6486 0.760021 55.2886 1.08002 56.7019 1.72002C58.1419 2.33335 59.2619 3.20002 60.0619 4.32002C60.8886 5.44002 61.3019 6.78669 61.3019 8.36002C61.3019 9.40002 61.0886 10.0934 60.6619 10.44C60.2352 10.76 59.5819 10.92 58.7019 10.92C57.9819 10.92 57.3686 10.8 56.8619 10.56C56.3819 10.2934 56.1286 9.86669 56.1019 9.28002C56.1019 8.96002 56.0486 8.58669 55.9419 8.16002C55.8619 7.70669 55.6886 7.26669 55.4219 6.84002C55.1552 6.41335 54.7419 6.05335 54.1819 5.76002C53.6486 5.46669 52.9019 5.32002 51.9419 5.32002C50.5819 5.32002 49.5419 5.70669 48.8219 6.48002C48.1019 7.22669 47.7419 8.38669 47.7419 9.96002V21.04C47.7419 22.64 48.1019 23.8134 48.8219 24.56C49.5686 25.3067 50.6352 25.68 52.0219 25.68C52.9286 25.68 53.6486 25.5334 54.1819 25.24C54.7152 24.9467 55.1019 24.5867 55.3419 24.16C55.6086 23.7067 55.7819 23.24 55.8619 22.76C55.9686 22.28 56.0486 21.8267 56.1019 21.4C56.1552 20.76 56.4219 20.3334 56.9019 20.12C57.3819 19.88 57.9686 19.76 58.6619 19.76C59.5686 19.76 60.2352 19.9334 60.6619 20.28C61.0886 20.6267 61.3019 21.3067 61.3019 22.32C61.3019 23.92 60.8886 25.32 60.0619 26.52C59.2619 27.72 58.1419 28.64 56.7019 29.28C55.2619 29.92 53.6086 30.24 51.7419 30.24Z" fill="#141414"/>
<path d="M66.0931 30C65.6131 30 65.1198 29.9067 64.6132 29.72C64.1065 29.5334 63.6798 29.28 63.3331 28.96C62.9865 28.64 62.8131 28.2667 62.8131 27.84C62.8131 27.76 62.8265 27.6267 62.8531 27.44L70.5732 2.28002C70.7598 1.69335 71.1731 1.25335 71.8131 0.960021C72.4798 0.666687 73.1865 0.52002 73.9332 0.52002C74.7065 0.52002 75.4131 0.666687 76.0531 0.960021C76.6931 1.25335 77.1065 1.69335 77.2932 2.28002L85.0132 27.44C85.0665 27.6267 85.0932 27.76 85.0932 27.84C85.0932 28.24 84.9065 28.6134 84.5331 28.96C84.1865 29.28 83.7598 29.5334 83.2532 29.72C82.7465 29.9067 82.2531 30 81.7731 30C81.3465 30 80.9732 29.9334 80.6532 29.8C80.3598 29.64 80.1598 29.36 80.0532 28.96L78.5331 23.64H69.3332L67.8531 28.96C67.7465 29.36 67.5332 29.64 67.2132 29.8C66.8932 29.9334 66.5198 30 66.0931 30ZM70.4531 19.56H77.4131L73.9332 7.28002L70.4531 19.56Z" fill="#141414"/>
<path d="M95.6219 30.36C93.8886 30.36 92.3152 30.1067 90.9019 29.6C89.5152 29.0934 88.4086 28.4667 87.5819 27.72C86.7819 26.9467 86.3819 26.1734 86.3819 25.4C86.3819 25.0267 86.4752 24.6267 86.6619 24.2C86.8752 23.7467 87.1552 23.3734 87.5019 23.08C87.8486 22.76 88.2352 22.6 88.6619 22.6C89.0886 22.6 89.4886 22.76 89.8619 23.08C90.2352 23.3734 90.6619 23.7334 91.1419 24.16C91.6219 24.56 92.2086 24.92 92.9019 25.24C93.5952 25.5334 94.4486 25.68 95.4619 25.68C96.2619 25.68 96.9952 25.56 97.6619 25.32C98.3552 25.0534 98.9019 24.6667 99.3019 24.16C99.7286 23.6534 99.9419 23 99.9419 22.2C99.9419 21.3467 99.7152 20.6267 99.2619 20.04C98.8086 19.4534 98.1952 18.9467 97.4219 18.52C96.6486 18.0934 95.8086 17.68 94.9019 17.28C93.9952 16.88 93.0752 16.4534 92.1419 16C91.2352 15.5467 90.3952 15 89.6219 14.36C88.8752 13.72 88.2619 12.9334 87.7819 12C87.3286 11.0667 87.1019 9.92002 87.1019 8.56002C87.1019 7.06669 87.3819 5.81335 87.9419 4.80002C88.5286 3.78669 89.2886 2.97335 90.2219 2.36002C91.1819 1.72002 92.2352 1.26669 93.3819 1.00002C94.5286 0.706686 95.6752 0.560019 96.8219 0.560019C97.4352 0.560019 98.1552 0.613352 98.9819 0.720019C99.8352 0.80002 100.675 0.96002 101.502 1.20002C102.355 1.44002 103.049 1.77335 103.582 2.20002C104.142 2.60002 104.422 3.13335 104.422 3.80002C104.422 4.09335 104.342 4.45335 104.182 4.88002C104.049 5.30669 103.822 5.69335 103.502 6.04002C103.209 6.38669 102.822 6.56002 102.342 6.56002C101.915 6.56002 101.489 6.44002 101.062 6.20002C100.662 5.93335 100.129 5.68002 99.4619 5.44002C98.8219 5.17335 97.9419 5.04002 96.8219 5.04002C95.8886 5.04002 95.0752 5.16002 94.3819 5.40002C93.6886 5.64002 93.1686 5.98669 92.8219 6.44002C92.4752 6.86669 92.3019 7.41335 92.3019 8.08002C92.3019 8.77335 92.5286 9.36002 92.9819 9.84002C93.4619 10.32 94.0752 10.7467 94.8219 11.12C95.5952 11.4934 96.4352 11.8667 97.3419 12.24C98.2486 12.6134 99.1552 13.0534 100.062 13.56C100.995 14.04 101.849 14.6267 102.622 15.32C103.395 16.0134 104.009 16.88 104.462 17.92C104.915 18.9334 105.142 20.1867 105.142 21.68C105.142 23.5734 104.729 25.1734 103.902 26.48C103.075 27.76 101.942 28.7334 100.502 29.4C99.0886 30.04 97.4619 30.36 95.6219 30.36Z" fill="#141414"/>
<path d="M124.528 30.36C122.795 30.36 121.221 30.1067 119.808 29.6C118.421 29.0934 117.315 28.4667 116.488 27.72C115.688 26.9467 115.288 26.1734 115.288 25.4C115.288 25.0267 115.381 24.6267 115.568 24.2C115.781 23.7467 116.061 23.3734 116.408 23.08C116.755 22.76 117.141 22.6 117.568 22.6C117.995 22.6 118.395 22.76 118.768 23.08C119.141 23.3734 119.568 23.7334 120.048 24.16C120.528 24.56 121.115 24.92 121.808 25.24C122.501 25.5334 123.355 25.68 124.368 25.68C125.168 25.68 125.901 25.56 126.568 25.32C127.261 25.0534 127.808 24.6667 128.208 24.16C128.635 23.6534 128.848 23 128.848 22.2C128.848 21.3467 128.621 20.6267 128.168 20.04C127.715 19.4534 127.101 18.9467 126.328 18.52C125.555 18.0934 124.715 17.68 123.808 17.28C122.901 16.88 121.981 16.4534 121.048 16C120.141 15.5467 119.301 15 118.528 14.36C117.781 13.72 117.168 12.9334 116.688 12C116.235 11.0667 116.008 9.92002 116.008 8.56002C116.008 7.06669 116.288 5.81335 116.848 4.80002C117.435 3.78669 118.195 2.97335 119.128 2.36002C120.088 1.72002 121.141 1.26669 122.288 1.00002C123.435 0.706686 124.581 0.560019 125.728 0.560019C126.341 0.560019 127.061 0.613352 127.888 0.720019C128.741 0.80002 129.581 0.96002 130.408 1.20002C131.261 1.44002 131.955 1.77335 132.488 2.20002C133.048 2.60002 133.328 3.13335 133.328 3.80002C133.328 4.09335 133.248 4.45335 133.088 4.88002C132.955 5.30669 132.728 5.69335 132.408 6.04002C132.115 6.38669 131.728 6.56002 131.248 6.56002C130.821 6.56002 130.395 6.44002 129.968 6.20002C129.568 5.93335 129.035 5.68002 128.368 5.44002C127.728 5.17335 126.848 5.04002 125.728 5.04002C124.795 5.04002 123.981 5.16002 123.288 5.40002C122.595 5.64002 122.075 5.98669 121.728 6.44002C121.381 6.86669 121.208 7.41335 121.208 8.08002C121.208 8.77335 121.435 9.36002 121.888 9.84002C122.368 10.32 122.981 10.7467 123.728 11.12C124.501 11.4934 125.341 11.8667 126.248 12.24C127.155 12.6134 128.061 13.0534 128.968 13.56C129.901 14.04 130.755 14.6267 131.528 15.32C132.301 16.0134 132.915 16.88 133.368 17.92C133.821 18.9334 134.048 20.1867 134.048 21.68C134.048 23.5734 133.635 25.1734 132.808 26.48C131.981 27.76 130.848 28.7334 129.408 29.4C127.995 30.04 126.368 30.36 124.528 30.36Z" fill="#141414"/>
<path d="M138.867 30C138.387 30 137.893 29.9067 137.387 29.72C136.88 29.5334 136.453 29.28 136.107 28.96C135.76 28.64 135.587 28.2667 135.587 27.84C135.587 27.76 135.6 27.6267 135.627 27.44L143.347 2.28002C143.533 1.69335 143.947 1.25335 144.587 0.960021C145.253 0.666687 145.96 0.52002 146.707 0.52002C147.48 0.52002 148.187 0.666687 148.827 0.960021C149.467 1.25335 149.88 1.69335 150.067 2.28002L157.787 27.44C157.84 27.6267 157.867 27.76 157.867 27.84C157.867 28.24 157.68 28.6134 157.307 28.96C156.96 29.28 156.533 29.5334 156.027 29.72C155.52 29.9067 155.027 30 154.547 30C154.12 30 153.747 29.9334 153.427 29.8C153.133 29.64 152.933 29.36 152.827 28.96L151.307 23.64H142.107L140.627 28.96C140.52 29.36 140.307 29.64 139.987 29.8C139.667 29.9334 139.293 30 138.867 30ZM143.227 19.56H150.187L146.707 7.28002L143.227 19.56Z" fill="#141414"/>
<path d="M163.195 30C162.555 30 161.955 29.8667 161.395 29.6C160.862 29.3067 160.595 28.88 160.595 28.32V2.40002C160.595 1.84002 160.862 1.42669 161.395 1.16002C161.955 0.893354 162.555 0.760021 163.195 0.760021C163.835 0.760021 164.355 0.826688 164.755 0.960021C165.182 1.09335 165.569 1.36002 165.915 1.76002C166.289 2.13335 166.675 2.72002 167.075 3.52002L174.795 18.44V2.40002C174.795 1.81335 175.062 1.40002 175.595 1.16002C176.155 0.893354 176.755 0.760021 177.395 0.760021C178.062 0.760021 178.662 0.893354 179.195 1.16002C179.729 1.40002 179.995 1.81335 179.995 2.40002V28.32C179.995 28.88 179.729 29.3067 179.195 29.6C178.662 29.8667 178.062 30 177.395 30C176.782 30 176.209 29.88 175.675 29.64C175.169 29.4 174.755 28.9734 174.435 28.36L165.795 12.28V28.32C165.795 28.88 165.529 29.3067 164.995 29.6C164.462 29.8667 163.862 30 163.195 30Z" fill="#141414"/>
<path d="M192.933 30C192.266 30 191.666 29.8667 191.133 29.6C190.6 29.3067 190.333 28.88 190.333 28.32V5.44002H184.453C183.946 5.44002 183.546 5.20002 183.253 4.72002C182.96 4.24002 182.813 3.69335 182.813 3.08002C182.813 2.52002 182.946 2.00002 183.213 1.52002C183.48 1.01335 183.893 0.760021 184.453 0.760021H201.373C201.96 0.760021 202.373 1.01335 202.613 1.52002C202.88 2.00002 203.013 2.52002 203.013 3.08002C203.013 3.69335 202.866 4.24002 202.573 4.72002C202.306 5.20002 201.906 5.44002 201.373 5.44002H195.533V28.32C195.533 28.88 195.253 29.3067 194.693 29.6C194.16 29.8667 193.573 30 192.933 30Z" fill="#141414"/>
<path d="M214.324 30.24C212.564 30.24 210.977 29.9467 209.564 29.36C208.15 28.7467 207.017 27.7734 206.164 26.44C205.337 25.08 204.924 23.28 204.924 21.04V9.96002C204.924 7.72002 205.337 5.93335 206.164 4.60002C207.017 3.24002 208.137 2.26669 209.524 1.68002C210.937 1.06669 212.537 0.760021 214.324 0.760021C216.084 0.760021 217.67 1.06669 219.084 1.68002C220.524 2.26669 221.657 3.24002 222.484 4.60002C223.31 5.93335 223.724 7.72002 223.724 9.96002V21.04C223.724 23.28 223.31 25.08 222.484 26.44C221.657 27.7734 220.524 28.7467 219.084 29.36C217.67 29.9467 216.084 30.24 214.324 30.24ZM214.324 25.68C215.63 25.68 216.657 25.3067 217.404 24.56C218.15 23.8134 218.524 22.64 218.524 21.04V9.96002C218.524 8.36002 218.15 7.18669 217.404 6.44002C216.657 5.69335 215.63 5.32002 214.324 5.32002C213.017 5.32002 211.99 5.69335 211.244 6.44002C210.524 7.18669 210.164 8.36002 210.164 9.96002V21.04C210.164 22.64 210.524 23.8134 211.244 24.56C211.99 25.3067 213.017 25.68 214.324 25.68Z" fill="#141414"/>
<path d="M236.013 30.36C234.279 30.36 232.706 30.1067 231.293 29.6C229.906 29.0934 228.799 28.4667 227.973 27.72C227.173 26.9467 226.773 26.1734 226.773 25.4C226.773 25.0267 226.866 24.6267 227.053 24.2C227.266 23.7467 227.546 23.3734 227.893 23.08C228.239 22.76 228.626 22.6 229.053 22.6C229.479 22.6 229.879 22.76 230.253 23.08C230.626 23.3734 231.053 23.7334 231.533 24.16C232.013 24.56 232.599 24.92 233.293 25.24C233.986 25.5334 234.839 25.68 235.853 25.68C236.653 25.68 237.386 25.56 238.053 25.32C238.746 25.0534 239.293 24.6667 239.693 24.16C240.119 23.6534 240.333 23 240.333 22.2C240.333 21.3467 240.106 20.6267 239.653 20.04C239.199 19.4534 238.586 18.9467 237.813 18.52C237.039 18.0934 236.199 17.68 235.293 17.28C234.386 16.88 233.466 16.4534 232.533 16C231.626 15.5467 230.786 15 230.013 14.36C229.266 13.72 228.653 12.9334 228.173 12C227.719 11.0667 227.493 9.92002 227.493 8.56002C227.493 7.06669 227.773 5.81335 228.333 4.80002C228.919 3.78669 229.679 2.97335 230.613 2.36002C231.573 1.72002 232.626 1.26669 233.773 1.00002C234.919 0.706686 236.066 0.560019 237.213 0.560019C237.826 0.560019 238.546 0.613352 239.373 0.720019C240.226 0.80002 241.066 0.96002 241.893 1.20002C242.746 1.44002 243.439 1.77335 243.973 2.20002C244.533 2.60002 244.813 3.13335 244.813 3.80002C244.813 4.09335 244.733 4.45335 244.573 4.88002C244.439 5.30669 244.213 5.69335 243.893 6.04002C243.599 6.38669 243.213 6.56002 242.733 6.56002C242.306 6.56002 241.879 6.44002 241.453 6.20002C241.053 5.93335 240.519 5.68002 239.853 5.44002C239.213 5.17335 238.333 5.04002 237.213 5.04002C236.279 5.04002 235.466 5.16002 234.773 5.40002C234.079 5.64002 233.559 5.98669 233.213 6.44002C232.866 6.86669 232.693 7.41335 232.693 8.08002C232.693 8.77335 232.919 9.36002 233.373 9.84002C233.853 10.32 234.466 10.7467 235.213 11.12C235.986 11.4934 236.826 11.8667 237.733 12.24C238.639 12.6134 239.546 13.0534 240.453 13.56C241.386 14.04 242.239 14.6267 243.013 15.32C243.786 16.0134 244.399 16.88 244.853 17.92C245.306 18.9334 245.533 20.1867 245.533 21.68C245.533 23.5734 245.119 25.1734 244.293 26.48C243.466 27.76 242.333 28.7334 240.893 29.4C239.479 30.04 237.853 30.36 236.013 30.36Z" fill="#141414"/>
</svg>
